<svg width="16" height="17" viewBox="0 0 16 17" fill="none" xmlns="http://www.w3.org/2000/svg">
<g clip-path="url(#clip0_6_1734)">
<path d="M4.66667 0.5H2.66667C1.95942 0.5 1.28115 0.780952 0.781049 1.28105C0.280952 1.78115 0 2.45942 0 3.16667L0 5.16667C0 5.87391 0.280952 6.55219 0.781049 7.05229C1.28115 7.55238 1.95942 7.83333 2.66667 7.83333H4.66667C5.37391 7.83333 6.05219 7.55238 6.55229 7.05229C7.05238 6.55219 7.33333 5.87391 7.33333 5.16667V3.16667C7.33333 2.45942 7.05238 1.78115 6.55229 1.28105C6.05219 0.780952 5.37391 0.5 4.66667 0.5ZM6 5.16667C6 5.52029 5.85952 5.85943 5.60948 6.10948C5.35943 6.35952 5.02029 6.5 4.66667 6.5H2.66667C2.31305 6.5 1.97391 6.35952 1.72386 6.10948C1.47381 5.85943 1.33333 5.52029 1.33333 5.16667V3.16667C1.33333 2.81305 1.47381 2.47391 1.72386 2.22386C1.97391 1.97381 2.31305 1.83333 2.66667 1.83333H4.66667C5.02029 1.83333 5.35943 1.97381 5.60948 2.22386C5.85952 2.47391 6 2.81305 6 3.16667V5.16667Z" fill="white"/>
<path d="M13.3333 0.5H11.3333C10.626 0.5 9.94777 0.780952 9.44767 1.28105C8.94758 1.78115 8.66663 2.45942 8.66663 3.16667V5.16667C8.66663 5.87391 8.94758 6.55219 9.44767 7.05229C9.94777 7.55238 10.626 7.83333 11.3333 7.83333H13.3333C14.0405 7.83333 14.7188 7.55238 15.2189 7.05229C15.719 6.55219 16 5.87391 16 5.16667V3.16667C16 2.45942 15.719 1.78115 15.2189 1.28105C14.7188 0.780952 14.0405 0.5 13.3333 0.5ZM14.6666 5.16667C14.6666 5.52029 14.5262 5.85943 14.2761 6.10948C14.0261 6.35952 13.6869 6.5 13.3333 6.5H11.3333C10.9797 6.5 10.6405 6.35952 10.3905 6.10948C10.1404 5.85943 9.99996 5.52029 9.99996 5.16667V3.16667C9.99996 2.81305 10.1404 2.47391 10.3905 2.22386C10.6405 1.97381 10.9797 1.83333 11.3333 1.83333H13.3333C13.6869 1.83333 14.0261 1.97381 14.2761 2.22386C14.5262 2.47391 14.6666 2.81305 14.6666 3.16667V5.16667Z" fill="white"/>
<path d="M4.66667 9.16663H2.66667C1.95942 9.16663 1.28115 9.44758 0.781049 9.94767C0.280952 10.4478 0 11.126 0 11.8333L0 13.8333C0 14.5405 0.280952 15.2188 0.781049 15.7189C1.28115 16.219 1.95942 16.5 2.66667 16.5H4.66667C5.37391 16.5 6.05219 16.219 6.55229 15.7189C7.05238 15.2188 7.33333 14.5405 7.33333 13.8333V11.8333C7.33333 11.126 7.05238 10.4478 6.55229 9.94767C6.05219 9.44758 5.37391 9.16663 4.66667 9.16663ZM6 13.8333C6 14.1869 5.85952 14.5261 5.60948 14.7761C5.35943 15.0262 5.02029 15.1666 4.66667 15.1666H2.66667C2.31305 15.1666 1.97391 15.0262 1.72386 14.7761C1.47381 14.5261 1.33333 14.1869 1.33333 13.8333V11.8333C1.33333 11.4797 1.47381 11.1405 1.72386 10.8905C1.97391 10.6404 2.31305 10.5 2.66667 10.5H4.66667C5.02029 10.5 5.35943 10.6404 5.60948 10.8905C5.85952 11.1405 6 11.4797 6 11.8333V13.8333Z" fill="white"/>
<path d="M13.3333 9.16663H11.3333C10.626 9.16663 9.94777 9.44758 9.44767 9.94767C8.94758 10.4478 8.66663 11.126 8.66663 11.8333V13.8333C8.66663 14.5405 8.94758 15.2188 9.44767 15.7189C9.94777 16.219 10.626 16.5 11.3333 16.5H13.3333C14.0405 16.5 14.7188 16.219 15.2189 15.7189C15.719 15.2188 16 14.5405 16 13.8333V11.8333C16 11.126 15.719 10.4478 15.2189 9.94767C14.7188 9.44758 14.0405 9.16663 13.3333 9.16663ZM14.6666 13.8333C14.6666 14.1869 14.5262 14.5261 14.2761 14.7761C14.0261 15.0262 13.6869 15.1666 13.3333 15.1666H11.3333C10.9797 15.1666 10.6405 15.0262 10.3905 14.7761C10.1404 14.5261 9.99996 14.1869 9.99996 13.8333V11.8333C9.99996 11.4797 10.1404 11.1405 10.3905 10.8905C10.6405 10.6404 10.9797 10.5 11.3333 10.5H13.3333C13.6869 10.5 14.0261 10.6404 14.2761 10.8905C14.5262 11.1405 14.6666 11.4797 14.6666 11.8333V13.8333Z" fill="white"/>
</g>
<defs>
<clipPath id="clip0_6_1734">
<rect width="16" height="16" fill="white" transform="translate(0 0.5)"/>
</clipPath>
</defs>
</svg>
