<svg width="16" height="17" viewBox="0 0 16 17" fill="none" xmlns="http://www.w3.org/2000/svg">
<g clip-path="url(#clip0_155_2477)">
<path d="M12.6667 1.35185H12V0.675926C12 0.496659 11.9298 0.324735 11.8047 0.197974C11.6797 0.0712135 11.5101 0 11.3333 0C11.1565 0 10.987 0.0712135 10.8619 0.197974C10.7369 0.324735 10.6667 0.496659 10.6667 0.675926V1.35185H5.33333V0.675926C5.33333 0.496659 5.2631 0.324735 5.13807 0.197974C5.01305 0.0712135 4.84348 0 4.66667 0C4.48986 0 4.32029 0.0712135 4.19526 0.197974C4.07024 0.324735 4 0.496659 4 0.675926V1.35185H3.33333C2.4496 1.35293 1.60237 1.70934 0.97748 2.34291C0.352588 2.97648 0.00105857 3.83548 0 4.73148L0 12.8426C0.00105857 13.7386 0.352588 14.5976 0.97748 15.2312C1.60237 15.8647 2.4496 16.2212 3.33333 16.2222H12.6667C13.5504 16.2212 14.3976 15.8647 15.0225 15.2312C15.6474 14.5976 15.9989 13.7386 16 12.8426V4.73148C15.9989 3.83548 15.6474 2.97648 15.0225 2.34291C14.3976 1.70934 13.5504 1.35293 12.6667 1.35185ZM1.33333 4.73148C1.33333 4.19368 1.54405 3.67791 1.91912 3.29763C2.29419 2.91735 2.8029 2.7037 3.33333 2.7037H12.6667C13.1971 2.7037 13.7058 2.91735 14.0809 3.29763C14.456 3.67791 14.6667 4.19368 14.6667 4.73148V5.40741H1.33333V4.73148ZM12.6667 14.8704H3.33333C2.8029 14.8704 2.29419 14.6567 1.91912 14.2765C1.54405 13.8962 1.33333 13.3804 1.33333 12.8426V6.75926H14.6667V12.8426C14.6667 13.3804 14.456 13.8962 14.0809 14.2765C13.7058 14.6567 13.1971 14.8704 12.6667 14.8704Z" fill="#C6C6C8"/>
</g>
<defs>
<clipPath id="clip0_155_2477">
<rect width="16" height="16.2222" fill="white"/>
</clipPath>
</defs>
</svg>
