<svg width="18" height="19" viewBox="0 0 18 19" fill="none" xmlns="http://www.w3.org/2000/svg">
<g clip-path="url(#clip0_566_41)">
<path d="M10.5909 9.12522L17.6706 1.94795C18.1101 1.50238 18.1101 0.779963 17.6706 0.334425C17.2312 -0.111149 16.5186 -0.111149 16.0792 0.334425L9.00022 7.51244L1.92127 0.334425C1.4818 -0.111149 0.769282 -0.111149 0.329847 0.334425C-0.109588 0.779999 -0.109623 1.50241 0.329847 1.94795L7.40953 9.12522L0.329847 16.3025C-0.109623 16.7481 -0.109623 17.4705 0.329847 17.9161C0.769317 18.3616 1.48183 18.3616 1.92127 17.9161L9.00022 10.738L16.0792 17.9161C16.5186 18.3616 17.2312 18.3616 17.6706 17.9161C18.1101 17.4705 18.1101 16.7481 17.6706 16.3025L10.5909 9.12522Z" fill="#282828"/>
</g>
<defs>
<clipPath id="clip0_566_41">
<rect width="18" height="18.25" fill="white"/>
</clipPath>
</defs>
</svg>
