<svg width="24" height="24" viewBox="0 0 24 24" fill="none" xmlns="http://www.w3.org/2000/svg">
<path d="M23.8211 11.181C22.9431 9.261 19.5001 3 12.0001 3C4.50011 3 1.05712 9.261 0.179115 11.181C0.0612537 11.4383 0.000244141 11.718 0.000244141 12.001C0.000244141 12.284 0.0612537 12.5637 0.179115 12.821C1.05712 14.739 4.50011 21 12.0001 21C19.5001 21 22.9431 14.739 23.8211 12.819C23.9387 12.562 23.9996 12.2827 23.9996 12C23.9996 11.7173 23.9387 11.438 23.8211 11.181ZM12.0001 18C10.8134 18 9.65339 17.6481 8.66669 16.9888C7.68 16.3295 6.91096 15.3925 6.45684 14.2961C6.00271 13.1997 5.88389 11.9933 6.1154 10.8295C6.34691 9.66557 6.91836 8.59647 7.75747 7.75736C8.59659 6.91824 9.66569 6.3468 10.8296 6.11529C11.9935 5.88378 13.1999 6.0026 14.2962 6.45672C15.3926 6.91085 16.3296 7.67988 16.9889 8.66658C17.6482 9.65327 18.0001 10.8133 18.0001 12C17.9985 13.5908 17.3659 15.116 16.241 16.2409C15.1161 17.3658 13.5909 17.9984 12.0001 18Z" fill="#2554F8"/>
<path d="M12 16C14.2091 16 16 14.2091 16 12C16 9.79086 14.2091 8 12 8C9.79086 8 8 9.79086 8 12C8 14.2091 9.79086 16 12 16Z" fill="#2554F8"/>
</svg>
