<svg width="32" height="32" viewBox="0 0 32 32" fill="none" xmlns="http://www.w3.org/2000/svg">
<g clip-path="url(#clip0_5_918)">
<path d="M16.3265 13.0909V19.2874H25.1132C24.7274 21.2801 23.5695 22.9674 21.833 24.102L27.1317 28.1311C30.2189 25.3385 32 21.2366 32 16.3638C32 15.2293 31.8961 14.1383 31.7031 13.0911L16.3265 13.0909Z" fill="#4285F4"/>
<path d="M7.17667 19.0454L5.98161 19.9419L1.75146 23.171C4.43793 28.3928 9.94405 32.0001 16.3262 32.0001C20.7343 32.0001 24.43 30.5747 27.1314 28.1311L21.8327 24.1019C20.3781 25.0619 18.5228 25.6438 16.3262 25.6438C12.0813 25.6438 8.47473 22.8365 7.18335 19.0546L7.17667 19.0454Z" fill="#34A853"/>
<path d="M1.75152 8.8291C0.6384 10.9818 0.000244141 13.4109 0.000244141 16C0.000244141 18.589 0.6384 21.0182 1.75152 23.1708C1.75152 23.1853 7.18392 19.0399 7.18392 19.0399C6.85739 18.0799 6.66439 17.0618 6.66439 15.9998C6.66439 14.9378 6.85739 13.9197 7.18392 12.9597L1.75152 8.8291Z" fill="#FBBC05"/>
<path d="M16.3266 6.37094C18.7311 6.37094 20.8683 7.18547 22.5752 8.75641L27.2505 4.17462C24.4156 1.58556 20.7348 0 16.3266 0C9.94438 0 4.43793 3.59274 1.75146 8.82915L7.1837 12.9601C8.47491 9.17821 12.0817 6.37094 16.3266 6.37094Z" fill="#EA4335"/>
</g>
<defs>
<clipPath id="clip0_5_918">
<rect width="32" height="32" fill="white"/>
</clipPath>
</defs>
</svg>
