<svg width="16" height="17" viewBox="0 0 16 17" fill="none" xmlns="http://www.w3.org/2000/svg">
<g clip-path="url(#clip0_6_2197)">
<path d="M8 11.2037C7.47258 11.2037 6.95701 11.0452 6.51848 10.7481C6.07995 10.451 5.73815 10.0287 5.53632 9.5347C5.33449 9.04066 5.28168 8.49703 5.38457 7.97257C5.48747 7.4481 5.74144 6.96634 6.11438 6.58822C6.48732 6.2101 6.96248 5.9526 7.47976 5.84828C7.99704 5.74396 8.53322 5.7975 9.02049 6.00213C9.50776 6.20677 9.92424 6.55331 10.2173 6.99794C10.5103 7.44256 10.6667 7.96529 10.6667 8.50003C10.6667 9.2171 10.3857 9.9048 9.88562 10.4118C9.38552 10.9189 8.70724 11.2037 8 11.2037ZM8 7.14818C7.73629 7.14818 7.47851 7.22747 7.25924 7.37601C7.03997 7.52455 6.86908 7.73568 6.76816 7.9827C6.66724 8.22972 6.64084 8.50153 6.69229 8.76377C6.74373 9.026 6.87072 9.26688 7.05719 9.45594C7.24366 9.645 7.48124 9.77375 7.73988 9.82591C7.99852 9.87807 8.26661 9.8513 8.51024 9.74898C8.75388 9.64666 8.96212 9.47339 9.10863 9.25108C9.25513 9.02877 9.33333 8.7674 9.33333 8.50003C9.33333 8.1415 9.19286 7.79765 8.94281 7.54413C8.69276 7.29061 8.35362 7.14818 8 7.14818ZM12 15.9352C12 14.8596 11.5786 13.8281 10.8284 13.0675C10.0783 12.3069 9.06087 11.8797 8 11.8797C6.93913 11.8797 5.92172 12.3069 5.17157 13.0675C4.42143 13.8281 4 14.8596 4 15.9352C4 16.1145 4.07024 16.2864 4.19526 16.4132C4.32029 16.5399 4.48986 16.6111 4.66667 16.6111C4.84348 16.6111 5.01305 16.5399 5.13807 16.4132C5.2631 16.2864 5.33333 16.1145 5.33333 15.9352C5.33333 15.2182 5.61428 14.5305 6.11438 14.0234C6.61448 13.5164 7.29276 13.2315 8 13.2315C8.70724 13.2315 9.38552 13.5164 9.88562 14.0234C10.3857 14.5305 10.6667 15.2182 10.6667 15.9352C10.6667 16.1145 10.7369 16.2864 10.8619 16.4132C10.987 16.5399 11.1565 16.6111 11.3333 16.6111C11.5101 16.6111 11.6797 16.5399 11.8047 16.4132C11.9298 16.2864 12 16.1145 12 15.9352ZM12 5.79633C11.4726 5.79633 10.957 5.63776 10.5185 5.34067C10.0799 5.04358 9.73816 4.62132 9.53632 4.12729C9.33449 3.63325 9.28168 3.08962 9.38457 2.56516C9.48747 2.04069 9.74144 1.55893 10.1144 1.18081C10.4873 0.802694 10.9625 0.545191 11.4798 0.440868C11.997 0.336545 12.5332 0.390087 13.0205 0.594725C13.5078 0.799362 13.9242 1.1459 14.2173 1.59052C14.5103 2.03515 14.6667 2.55788 14.6667 3.09262C14.6667 3.80969 14.3857 4.49739 13.8856 5.00443C13.3855 5.51147 12.7072 5.79633 12 5.79633ZM12 1.74077C11.7363 1.74077 11.4785 1.82005 11.2592 1.9686C11.04 2.11714 10.8691 2.32827 10.7682 2.57529C10.6672 2.82231 10.6408 3.09412 10.6923 3.35636C10.7437 3.61859 10.8707 3.85947 11.0572 4.04853C11.2437 4.23759 11.4812 4.36634 11.7399 4.4185C11.9985 4.47066 12.2666 4.44389 12.5102 4.34157C12.7539 4.23925 12.9621 4.06598 13.1086 3.84367C13.2551 3.62136 13.3333 3.35999 13.3333 3.09262C13.3333 2.73409 13.1929 2.39024 12.9428 2.13672C12.6928 1.8832 12.3536 1.74077 12 1.74077ZM16 10.5278C15.9989 9.45254 15.5772 8.42162 14.8273 7.66129C14.0773 6.90095 13.0605 6.47333 12 6.47225C11.8232 6.47225 11.6536 6.54347 11.5286 6.67023C11.4036 6.79699 11.3333 6.96891 11.3333 7.14818C11.3333 7.32745 11.4036 7.49937 11.5286 7.62613C11.6536 7.75289 11.8232 7.82411 12 7.82411C12.7072 7.82411 13.3855 8.10896 13.8856 8.616C14.3857 9.12305 14.6667 9.81075 14.6667 10.5278C14.6667 10.7071 14.7369 10.879 14.8619 11.0058C14.987 11.1325 15.1565 11.2037 15.3333 11.2037C15.5101 11.2037 15.6797 11.1325 15.8047 11.0058C15.9298 10.879 16 10.7071 16 10.5278ZM4 5.79633C3.47258 5.79633 2.95701 5.63776 2.51848 5.34067C2.07995 5.04358 1.73816 4.62132 1.53632 4.12729C1.33449 3.63325 1.28168 3.08962 1.38457 2.56516C1.48747 2.04069 1.74144 1.55893 2.11438 1.18081C2.48732 0.802694 2.96248 0.545191 3.47976 0.440868C3.99704 0.336545 4.53322 0.390087 5.02049 0.594725C5.50776 0.799362 5.92424 1.1459 6.21725 1.59052C6.51027 2.03515 6.66667 2.55788 6.66667 3.09262C6.66667 3.80969 6.38572 4.49739 5.88562 5.00443C5.38552 5.51147 4.70724 5.79633 4 5.79633ZM4 1.74077C3.73629 1.74077 3.47851 1.82005 3.25924 1.9686C3.03997 2.11714 2.86908 2.32827 2.76816 2.57529C2.66724 2.82231 2.64084 3.09412 2.69229 3.35636C2.74373 3.61859 2.87072 3.85947 3.05719 4.04853C3.24366 4.23759 3.48124 4.36634 3.73988 4.4185C3.99852 4.47066 4.26661 4.44389 4.51024 4.34157C4.75388 4.23925 4.96212 4.06598 5.10863 3.84367C5.25513 3.62136 5.33333 3.35999 5.33333 3.09262C5.33333 2.73409 5.19286 2.39024 4.94281 2.13672C4.69276 1.8832 4.35362 1.74077 4 1.74077ZM1.33333 10.5278C1.33333 9.81075 1.61428 9.12305 2.11438 8.616C2.61448 8.10896 3.29276 7.82411 4 7.82411C4.17681 7.82411 4.34638 7.75289 4.4714 7.62613C4.59643 7.49937 4.66667 7.32745 4.66667 7.14818C4.66667 6.96891 4.59643 6.79699 4.4714 6.67023C4.34638 6.54347 4.17681 6.47225 4 6.47225C2.93946 6.47333 1.92266 6.90095 1.17274 7.66129C0.422826 8.42162 0.00105895 9.45254 0 10.5278C0 10.7071 0.0702379 10.879 0.195262 11.0058C0.320286 11.1325 0.489856 11.2037 0.666667 11.2037C0.843478 11.2037 1.01305 11.1325 1.13807 11.0058C1.2631 10.879 1.33333 10.7071 1.33333 10.5278Z" fill="#828282"/>
</g>
<defs>
<clipPath id="clip0_6_2197">
<rect width="16" height="16.2222" fill="white" transform="translate(0 0.388916)"/>
</clipPath>
</defs>
</svg>
