<svg width="32" height="32" viewBox="0 0 32 32" fill="none" xmlns="http://www.w3.org/2000/svg">
<g clip-path="url(#clip0_313_793)">
<path d="M30.5892 9.11601L27.6799 6.20534L28.9426 4.94267C29.0699 4.81968 29.1715 4.67255 29.2414 4.50988C29.3112 4.34721 29.348 4.17225 29.3496 3.99521C29.3511 3.81817 29.3174 3.6426 29.2503 3.47873C29.1833 3.31487 29.0843 3.166 28.9591 3.04081C28.8339 2.91562 28.685 2.81662 28.5212 2.74958C28.3573 2.68254 28.1817 2.6488 28.0047 2.65034C27.8277 2.65188 27.6527 2.68866 27.49 2.75854C27.3273 2.82842 27.1802 2.92999 27.0572 3.05734L25.7946 4.32001L22.8839 1.41067C21.9665 0.536435 20.7478 0.0487671 19.4806 0.0487671C18.2133 0.0487671 16.9946 0.536435 16.0772 1.41067C15.63 1.85756 15.2752 2.38821 15.0331 2.97228C14.791 3.55636 14.6664 4.18242 14.6664 4.81467C14.6664 5.44693 14.791 6.07298 15.0331 6.65706C15.2752 7.24114 15.63 7.77179 16.0772 8.21867L18.9866 11.128L11.1279 18.9867L8.21723 16.0773C7.29981 15.2031 6.08115 14.7154 4.81389 14.7154C3.54664 14.7154 2.32798 15.2031 1.41056 16.0773C0.963305 16.5242 0.608501 17.0549 0.366427 17.639C0.124353 18.223 -0.000244141 18.8491 -0.000244141 19.4813C-0.000244141 20.1136 0.124353 20.7397 0.366427 21.3237C0.608501 21.9078 0.963305 22.4385 1.41056 22.8853L4.31989 25.7947L3.05723 27.0573C2.92988 27.1803 2.8283 27.3275 2.75843 27.4901C2.68855 27.6528 2.65177 27.8278 2.65023 28.0048C2.64869 28.1818 2.68242 28.3574 2.74947 28.5213C2.81651 28.6851 2.91551 28.834 3.0407 28.9592C3.16589 29.0844 3.31476 29.1834 3.47862 29.2504C3.64248 29.3175 3.81806 29.3512 3.9951 29.3497C4.17213 29.3481 4.3471 29.3114 4.50977 29.2415C4.67244 29.1716 4.81957 29.07 4.94256 28.9427L6.20523 27.68L9.11589 30.5893C9.56276 31.0364 10.0933 31.391 10.6773 31.633C11.2612 31.8749 11.8871 31.9995 12.5192 31.9995C13.1513 31.9995 13.7772 31.8749 14.3612 31.633C14.9451 31.391 15.4757 31.0364 15.9226 30.5893C16.3698 30.1426 16.7246 29.612 16.9666 29.0281C17.2087 28.4441 17.3333 27.8182 17.3333 27.186C17.3333 26.5539 17.2087 25.9279 16.9666 25.3439C16.7246 24.76 16.3698 24.2294 15.9226 23.7827L13.0132 20.8733L20.8799 13.0133L23.7892 15.9227C24.2361 16.3697 24.7667 16.7244 25.3506 16.9663C25.9346 17.2083 26.5605 17.3328 27.1926 17.3328C27.8247 17.3328 28.4506 17.2083 29.0345 16.9663C29.6185 16.7244 30.149 16.3697 30.5959 15.9227C31.0431 15.4759 31.3979 14.9454 31.6399 14.3614C31.882 13.7774 32.0066 13.1515 32.0066 12.5193C32.0066 11.8872 31.882 11.2612 31.6399 10.6773C31.3979 10.0933 31.0431 9.56278 30.5959 9.11601H30.5892ZM14.6666 27.1867C14.6671 27.4686 14.6118 27.7479 14.5038 28.0083C14.3958 28.2688 14.2372 28.5052 14.0372 28.704C13.6285 29.095 13.0848 29.3132 12.5192 29.3132C11.9537 29.3132 11.4099 29.095 11.0012 28.704L3.29589 20.9987C2.8933 20.5961 2.66712 20.05 2.66712 19.4807C2.66712 18.9113 2.8933 18.3653 3.29589 17.9627C3.69849 17.5601 4.24453 17.3339 4.81389 17.3339C5.38326 17.3339 5.9293 17.5601 6.33189 17.9627L14.0372 25.668C14.2374 25.8669 14.396 26.1036 14.5041 26.3643C14.6121 26.625 14.6673 26.9045 14.6666 27.1867ZM28.7039 14.0373C28.2952 14.4283 27.7515 14.6465 27.1859 14.6465C26.6203 14.6465 26.0766 14.4283 25.6679 14.0373L17.9626 6.33201C17.7632 6.13266 17.6051 5.896 17.4972 5.63554C17.3893 5.37508 17.3338 5.09592 17.3338 4.81401C17.3338 4.24465 17.56 3.6986 17.9626 3.29601C18.3652 2.89341 18.9112 2.66723 19.4806 2.66723C20.0499 2.66723 20.596 2.89341 20.9986 3.29601L28.7039 11.0013C28.9034 11.2006 29.0617 11.4372 29.1697 11.6977C29.2777 11.9582 29.3333 12.2374 29.3333 12.5193C29.3333 12.8013 29.2777 13.0805 29.1697 13.341C29.0617 13.6015 28.9034 13.8381 28.7039 14.0373Z" fill="#2554F8"/>
</g>
<defs>
<clipPath id="clip0_313_793">
<rect width="32" height="32" fill="white"/>
</clipPath>
</defs>
</svg>
