<svg width="24" height="25" viewBox="0 0 24 25" fill="none" xmlns="http://www.w3.org/2000/svg">
<g clip-path="url(#clip0_440_1321)">
<path d="M17.5 1.9436C16.3739 1.96136 15.2724 2.28007 14.3067 2.86753C13.341 3.455 12.5453 4.29042 12 5.28944C11.4546 4.29042 10.6589 3.455 9.69319 2.86753C8.7275 2.28007 7.62601 1.96136 6.49996 1.9436C4.7049 2.02268 3.01366 2.81885 1.79574 4.15817C0.577818 5.4975 -0.0677922 7.27111 -4.17102e-05 9.09152C-4.17102e-05 13.7017 4.78596 18.7367 8.79996 22.1504C9.69617 22.914 10.8293 23.3326 12 23.3326C13.1706 23.3326 14.3037 22.914 15.2 22.1504C19.214 18.7367 24 13.7017 24 9.09152C24.0677 7.27111 23.4221 5.4975 22.2042 4.15817C20.9862 2.81885 19.295 2.02268 17.5 1.9436Z" fill="#BF08FF"/>
</g>
<defs>
<clipPath id="clip0_440_1321">
<rect width="24" height="24.3333" fill="white"/>
</clipPath>
</defs>
</svg>
