<svg width="24" height="25" viewBox="0 0 24 25" fill="none" xmlns="http://www.w3.org/2000/svg">
<g clip-path="url(#clip0_400_49)">
<path d="M17.5 1.9436C16.3739 1.96136 15.2724 2.28007 14.3067 2.86753C13.341 3.455 12.5453 4.29042 12 5.28944C11.4546 4.29042 10.6589 3.455 9.69319 2.86753C8.7275 2.28007 7.62601 1.96136 6.49996 1.9436C4.7049 2.02268 3.01366 2.81885 1.79574 4.15817C0.577818 5.4975 -0.0677922 7.27111 -4.17102e-05 9.09152C-4.17102e-05 13.7017 4.78596 18.7367 8.79996 22.1504C9.69617 22.914 10.8293 23.3326 12 23.3326C13.1706 23.3326 14.3037 22.914 15.2 22.1504C19.214 18.7367 24 13.7017 24 9.09152C24.0677 7.27111 23.4221 5.4975 22.2042 4.15817C20.9862 2.81885 19.295 2.02268 17.5 1.9436ZM13.915 20.5992C13.3789 21.0568 12.7007 21.3078 12 21.3078C11.2992 21.3078 10.621 21.0568 10.085 20.5992C4.94696 16.2283 1.99996 12.0348 1.99996 9.09152C1.9316 7.80867 2.36632 6.55044 3.20932 5.59127C4.05232 4.6321 5.23519 4.04981 6.49996 3.97138C7.76472 4.04981 8.9476 4.6321 9.79059 5.59127C10.6336 6.55044 11.0683 7.80867 11 9.09152C11 9.36042 11.1053 9.61831 11.2928 9.80845C11.4804 9.99859 11.7347 10.1054 12 10.1054C12.2652 10.1054 12.5195 9.99859 12.7071 9.80845C12.8946 9.61831 13 9.36042 13 9.09152C12.9316 7.80867 13.3663 6.55044 14.2093 5.59127C15.0523 4.6321 16.2352 4.04981 17.5 3.97138C18.7647 4.04981 19.9476 4.6321 20.7906 5.59127C21.6336 6.55044 22.0683 7.80867 22 9.09152C22 12.0348 19.053 16.2283 13.915 20.5951V20.5992Z" fill="#282828"/>
</g>
<defs>
<clipPath id="clip0_400_49">
<rect width="24" height="24.3333" fill="white"/>
</clipPath>
</defs>
</svg>
