<svg width="32" height="28" viewBox="0 0 32 28" fill="none" xmlns="http://www.w3.org/2000/svg">
<path d="M25.3333 5.99999H17.3333C16.1158 6.00445 14.9228 6.34315 13.8845 6.97914C12.8462 7.61514 12.0025 8.52402 11.4453 9.60666C10.6459 8.99971 9.67043 8.66972 8.66667 8.66666C7.42899 8.66666 6.24201 9.15832 5.36684 10.0335C4.49167 10.9087 4 12.0956 4 13.3333C4.0039 14.0267 4.16386 14.7102 4.468 15.3333H2.66667V1.99999C2.66667 1.64637 2.52619 1.30723 2.27614 1.05718C2.02609 0.807132 1.68696 0.666656 1.33333 0.666656C0.979711 0.666656 0.640573 0.807132 0.390524 1.05718C0.140476 1.30723 0 1.64637 0 1.99999L0 26C0 26.3536 0.140476 26.6927 0.390524 26.9428C0.640573 27.1928 0.979711 27.3333 1.33333 27.3333C1.68696 27.3333 2.02609 27.1928 2.27614 26.9428C2.52619 26.6927 2.66667 26.3536 2.66667 26V23.3333H29.3333V26C29.3333 26.3536 29.4738 26.6927 29.7239 26.9428C29.9739 27.1928 30.313 27.3333 30.6667 27.3333C31.0203 27.3333 31.3594 27.1928 31.6095 26.9428C31.8595 26.6927 32 26.3536 32 26V12.6667C31.9979 10.8992 31.2948 9.20473 30.045 7.95495C28.7953 6.70517 27.1008 6.00211 25.3333 5.99999ZM13.3333 12.6667C13.3333 11.6058 13.7548 10.5884 14.5049 9.83823C15.2551 9.08808 16.2725 8.66666 17.3333 8.66666H25.3333C26.3942 8.66666 27.4116 9.08808 28.1618 9.83823C28.9119 10.5884 29.3333 11.6058 29.3333 12.6667V15.3333H13.3333V12.6667ZM6.66667 13.3333C6.66667 12.9378 6.78397 12.5511 7.00373 12.2222C7.22349 11.8933 7.53585 11.6369 7.9013 11.4856C8.26675 11.3342 8.66889 11.2946 9.05685 11.3718C9.44481 11.4489 9.80118 11.6394 10.0809 11.9191C10.3606 12.1988 10.5511 12.5552 10.6282 12.9431C10.7054 13.3311 10.6658 13.7332 10.5144 14.0987C10.3631 14.4641 10.1067 14.7765 9.77781 14.9963C9.44891 15.216 9.06223 15.3333 8.66667 15.3333C8.13623 15.3333 7.62753 15.1226 7.25245 14.7475C6.87738 14.3725 6.66667 13.8638 6.66667 13.3333ZM2.66667 20.6667V18H29.3333V20.6667H2.66667Z" fill="white"/>
</svg>
