<svg width="32" height="32" viewBox="0 0 32 32" fill="none" xmlns="http://www.w3.org/2000/svg">
<path d="M18.0001 8.66664C18.0001 9.19708 17.7894 9.70578 17.4143 10.0809C17.0392 10.4559 16.5305 10.6666 16.0001 10.6666C15.4696 10.6666 14.9609 10.4559 14.5859 10.0809C14.2108 9.70578 14.0001 9.19708 14.0001 8.66664C14.0001 8.13621 14.2108 7.6275 14.5859 7.25243C14.9609 6.87736 15.4696 6.66664 16.0001 6.66664C16.5305 6.66664 17.0392 6.87736 17.4143 7.25243C17.7894 7.6275 18.0001 8.13621 18.0001 8.66664ZM32.0001 25.3333V16.4533C32.0498 12.3432 30.5429 8.3665 27.7818 5.32154C25.0208 2.27657 21.2101 0.388825 17.1147 0.0373088C14.8289 -0.122614 12.5355 0.210295 10.3895 1.01351C8.24345 1.81673 6.29501 3.07152 4.67596 4.69297C3.0569 6.31443 1.80501 8.26473 1.00497 10.4119C0.204935 12.5591 -0.124574 14.8531 0.0387377 17.1386C0.628071 25.6106 8.10941 32 17.4441 32H25.3334C27.1009 31.9979 28.7953 31.2948 30.0451 30.045C31.2949 28.7952 31.998 27.1008 32.0001 25.3333ZM16.9334 2.69864C20.3554 3.00136 23.536 4.58786 25.8362 7.13938C28.1364 9.69091 29.3858 13.0184 29.3334 16.4533V25.3333C29.3334 26.3942 28.912 27.4116 28.1618 28.1617C27.4117 28.9119 26.3943 29.3333 25.3334 29.3333H17.4441C9.39874 29.3333 3.20007 24.1333 2.70007 16.9546C2.56881 15.1261 2.81604 13.2901 3.42632 11.5614C4.03659 9.8327 4.99681 8.24842 6.24697 6.90754C7.49713 5.56666 9.01037 4.49799 10.6922 3.76831C12.374 3.03862 14.1881 2.66359 16.0214 2.66664C16.3241 2.66664 16.6294 2.67864 16.9334 2.69864ZM18.6667 24V16C18.6667 15.2927 18.3858 14.6145 17.8857 14.1144C17.3856 13.6143 16.7073 13.3333 16.0001 13.3333H14.6667C14.3131 13.3333 13.974 13.4738 13.7239 13.7238C13.4739 13.9739 13.3334 14.313 13.3334 14.6666C13.3334 15.0203 13.4739 15.3594 13.7239 15.6095C13.974 15.8595 14.3131 16 14.6667 16H16.0001V24C16.0001 24.3536 16.1405 24.6927 16.3906 24.9428C16.6406 25.1928 16.9798 25.3333 17.3334 25.3333C17.687 25.3333 18.0262 25.1928 18.2762 24.9428C18.5263 24.6927 18.6667 24.3536 18.6667 24Z" fill="#2554F8"/>
</svg>
