<svg width="84" height="84" viewBox="0 0 84 84" fill="none" xmlns="http://www.w3.org/2000/svg">
<path d="M55.1069 35.2882C54.5679 34.7492 54.2009 34.0626 54.0522 33.3151C53.9035 32.5675 53.9798 31.7927 54.2715 31.0885C54.5632 30.3844 55.0571 29.7825 55.6908 29.3591C56.3245 28.9356 57.0696 28.7096 57.8318 28.7096C58.594 28.7096 59.339 28.9356 59.9728 29.3591C60.6065 29.7825 61.1004 30.3844 61.3921 31.0885C61.6838 31.7927 61.7601 32.5675 61.6114 33.3151C61.4627 34.0626 61.0957 34.7492 60.5567 35.2882C60.207 35.6602 59.7848 35.9566 59.3162 36.1593C58.8475 36.3619 58.3424 36.4665 57.8318 36.4665C57.3212 36.4665 56.816 36.3619 56.3474 36.1593C55.8788 35.9566 55.4566 35.6602 55.1069 35.2882ZM59.3209 31.0741C59.0264 30.7796 58.6512 30.579 58.2426 30.4978C57.8341 30.4165 57.4107 30.4582 57.0259 30.6176C56.6411 30.777 56.3122 31.0469 56.0807 31.3932C55.8493 31.7396 55.7258 32.1467 55.7258 32.5633C55.7258 32.9798 55.8493 33.3869 56.0807 33.7333C56.3122 34.0796 56.6411 34.3495 57.0259 34.5089C57.4107 34.6683 57.8341 34.71 58.2426 34.6287C58.6512 34.5475 59.0264 34.3469 59.3209 34.0524C59.53 33.8647 59.6972 33.6351 59.8117 33.3786C59.9261 33.122 59.9853 32.8442 59.9853 32.5633C59.9853 32.2823 59.9261 32.0045 59.8117 31.7479C59.6972 31.4914 59.53 31.2618 59.3209 31.0741Z" fill="white"/>
<path d="M9.14144 53.8436L9.14762 46.9787L27.4065 28.7198C27.5704 28.556 27.7927 28.4639 28.0244 28.4639C28.2562 28.4639 28.4784 28.556 28.6423 28.7198C28.8062 28.8837 28.8983 29.106 28.8983 29.3377C28.8983 29.5695 28.8062 29.7918 28.6423 29.9556L10.8901 47.7079L10.8901 52.0949L15.2833 52.1011L16.8837 50.5007L16.8837 45.7676L21.0978 45.7676L21.104 41.5474H25.318L25.3242 37.3272L30.0573 37.3024L33.0232 34.3365C33.1871 34.1727 33.4094 34.0806 33.6411 34.0806C33.8729 34.0806 34.0951 34.1727 34.259 34.3365C34.4229 34.5004 34.515 34.7227 34.515 34.9544C34.515 35.1862 34.4229 35.4084 34.259 35.5723L30.7679 39.0634L27.0605 39.0634L27.0852 43.3146H22.8711L22.865 47.5348L18.6509 47.5348V51.2422L16.031 53.8621L9.14144 53.8436Z" fill="white"/>
<path d="M60.6247 30.4377L59.3889 29.2019C60.995 27.5925 61.8975 25.4121 61.8987 23.1385C61.8998 20.8648 60.9995 18.6835 59.3951 17.0725C57.7708 15.4767 55.5878 14.5779 53.3108 14.5676C51.0338 14.5572 48.8427 15.436 47.204 17.0169L45.9682 15.7811C47.9348 13.8725 50.5704 12.8097 53.3109 12.8201C56.0513 12.8305 58.6788 13.9133 60.6309 15.8367C62.5631 17.7754 63.6475 20.4013 63.6463 23.1385C63.6452 25.8756 62.5585 28.5006 60.6247 30.4377Z" fill="white"/>
<path d="M44.2752 20.3783L42.6563 18.7594C42.1573 18.2604 41.877 17.5836 41.877 16.8779C41.877 16.1722 42.1573 15.4954 42.6563 14.9964C43.1553 14.4974 43.8321 14.217 44.5378 14.217C45.2435 14.217 45.9203 14.4974 46.4193 14.9964L48.0382 16.6153C48.2843 16.8613 48.479 17.1538 48.6108 17.4759C48.7427 17.7979 48.8091 18.1429 48.8062 18.4909C48.8034 18.8388 48.7312 19.1828 48.5941 19.5025C48.4569 19.8223 48.2575 20.1116 48.0073 20.3536C47.504 20.8295 46.8389 21.0968 46.1462 21.1014C45.4534 21.106 44.7848 20.8475 44.2752 20.3783ZM45.1835 16.2322C45.0123 16.0609 44.78 15.9647 44.5378 15.9647C44.2957 15.9647 44.0634 16.0609 43.8921 16.2322C43.7209 16.4034 43.6247 16.6357 43.6247 16.8779C43.6247 17.1201 43.7209 17.3523 43.8921 17.5236L45.511 19.1425C45.6856 19.2846 45.9038 19.3622 46.1289 19.3622C46.354 19.3622 46.5723 19.2846 46.7468 19.1425C46.8347 19.063 46.9055 18.9664 46.9549 18.8587C47.0043 18.7509 47.0313 18.6343 47.0342 18.5158C47.0371 18.3973 47.0158 18.2794 46.9717 18.1694C46.9276 18.0594 46.8616 17.9595 46.7777 17.8758L45.1835 16.2322Z" fill="white"/>
<path d="M31.1882 34.0215L29.0132 31.8465C24.0885 26.7364 23.7796 21.0147 28.2099 16.5844C31.9173 12.877 40.5679 4.2264 47.0187 10.6773L52.1535 15.812C58.6785 22.337 50.0279 30.9876 46.3205 34.695C41.8222 39.2551 36.1561 38.9894 31.1882 34.0215ZM45.8385 11.9563C41.2414 7.35915 34.9944 12.3703 29.5013 17.8634C24.2059 23.1588 28.2841 28.5592 30.3046 30.6539L32.4301 32.7795C34.4445 34.7938 39.7461 38.8596 45.1218 33.4839C50.4975 28.1082 55.6261 21.7438 50.9547 17.0725L45.8385 11.9563Z" fill="white"/>
<path d="M45.7827 58.4655C45.32 58.0089 44.9536 57.4641 44.7052 56.8634C44.4569 56.2627 44.3316 55.6182 44.3368 54.9682L44.3739 34.6023C44.3746 34.3714 44.4666 34.1502 44.6298 33.987C44.7931 33.8237 45.0143 33.7317 45.2451 33.731C45.476 33.7317 45.6972 33.8237 45.8604 33.987C46.0237 34.1502 46.1157 34.3714 46.1164 34.6023L46.1164 54.9929C46.1227 55.8234 46.4555 56.6181 47.0428 57.2054C47.6301 57.7927 48.4248 58.1255 49.2553 58.1318H61.2054C61.6183 58.1371 62.028 58.0597 62.4105 57.9041C62.793 57.7486 63.1404 57.518 63.4324 57.2261C63.7244 56.9341 63.9549 56.5866 64.1105 56.2042C64.266 55.8217 64.3435 55.412 64.3382 54.9991L64.2517 30.1966C64.2566 29.7831 64.1788 29.3727 64.0228 28.9896C63.8668 28.6066 63.6358 28.2586 63.3433 27.9661C63.0508 27.6736 62.7028 27.4426 62.3198 27.2866C61.9367 27.1306 61.5263 27.0528 61.1127 27.0577L52.2521 27.0577C52.0177 27.0544 51.7943 26.9582 51.6309 26.7902C51.4675 26.6222 51.3776 26.3961 51.3808 26.1618C51.3841 25.9274 51.4804 25.704 51.6484 25.5406C51.8164 25.3772 52.0425 25.2873 52.2768 25.2905L61.156 25.3091C61.7992 25.3013 62.4374 25.4223 63.0332 25.6649C63.6289 25.9074 64.1701 26.2667 64.625 26.7215C65.0798 27.1764 65.4391 27.7176 65.6816 28.3133C65.9242 28.909 66.0452 29.5473 66.0374 30.1905L66.0807 54.9867C66.086 55.6293 65.9634 56.2664 65.72 56.8611C65.4766 57.4558 65.1173 57.996 64.6629 58.4504C64.2085 58.9047 63.6683 59.2641 63.0736 59.5075C62.479 59.7509 61.8418 59.8735 61.1993 59.8681L49.2367 59.8681C48.597 59.8733 47.9626 59.752 47.3698 59.5113C46.7771 59.2706 46.2377 58.9152 45.7827 58.4655Z" fill="white"/>
</svg>
