<svg width="25" height="24" viewBox="0 0 25 24" fill="none" xmlns="http://www.w3.org/2000/svg">
<path d="M16.4313 20.6106C16.5587 20.4861 16.6598 20.338 16.7288 20.1748C16.7978 20.0116 16.8334 19.8366 16.8334 19.6598C16.8334 19.483 16.7978 19.308 16.7288 19.1448C16.6598 18.9816 16.5587 18.8335 16.4313 18.709L10.206 12.5758C10.0786 12.4513 9.97751 12.3032 9.9085 12.14C9.83949 11.9768 9.80397 11.8018 9.80397 11.625C9.80397 11.4482 9.83949 11.2732 9.9085 11.11C9.97751 10.9468 10.0786 10.7987 10.206 10.6742L16.4313 4.54098C16.5587 4.41649 16.6598 4.26838 16.7288 4.1052C16.7978 3.94201 16.8334 3.76698 16.8334 3.5902C16.8334 3.41341 16.7978 3.23838 16.7288 3.0752C16.6598 2.91201 16.5587 2.7639 16.4313 2.63941C16.1766 2.39 15.8321 2.25 15.4731 2.25C15.114 2.25 14.7695 2.39 14.5148 2.63941L8.27591 8.78604C7.51229 9.5393 7.08337 10.5604 7.08337 11.625C7.08337 12.6896 7.51229 13.7107 8.27591 14.464L14.5148 20.6106C14.7695 20.86 15.114 21 15.4731 21C15.8321 21 16.1766 20.86 16.4313 20.6106Z" fill="#282828"/>
</svg>
