<svg width="32" height="32" viewBox="0 0 32 32" fill="none" xmlns="http://www.w3.org/2000/svg">
<path d="M27.2662 27.2664H22.5244V19.8408C22.5244 18.0699 22.4929 15.7913 20.0581 15.7913C17.5887 15.7913 17.2103 17.7198 17.2103 19.713V27.2664H12.4701V11.9957H17.0226V14.0819H17.0857C18.0145 12.4956 19.7396 11.5478 21.5767 11.6156C26.3831 11.6156 27.2677 14.7773 27.2677 18.8883L27.2662 27.2664ZM7.1197 9.90787C5.59957 9.90787 4.36801 8.67631 4.36801 7.15618C4.36801 5.63605 5.59957 4.40449 7.1197 4.40449C8.63983 4.40449 9.87138 5.63605 9.87138 7.15618C9.87138 8.67631 8.63983 9.90787 7.1197 9.90787ZM9.48977 27.2664H4.74331V11.9957H9.48977V27.2664ZM29.6299 0.00179229H2.36062C1.07229 -0.0123998 0.015769 1.02047 0 2.30879V29.6901C0.015769 30.98 1.07229 32.0128 2.36062 31.9986H29.6299C30.9214 32.0144 31.9827 30.9815 32 29.6901V2.30722C31.9811 1.01574 30.9198 -0.0171306 29.6299 0.000215318" fill="#2E6DD6"/>
</svg>
