<svg xmlns="http://www.w3.org/2000/svg" width="16" height="17" viewBox="0 0 16 17" fill="none">
  <g clip-path="url(#clip0_154_1511)">
    <path d="M8.00004 4.05566C7.47263 4.05566 6.95705 4.21423 6.51852 4.51132C6.07999 4.80841 5.7382 5.23067 5.53636 5.72471C5.33453 6.21874 5.28172 6.76237 5.38461 7.28684C5.48751 7.8113 5.74148 8.29306 6.11442 8.67118C6.48736 9.0493 6.96252 9.3068 7.4798 9.41112C7.99708 9.51545 8.53326 9.4619 9.02053 9.25727C9.5078 9.05263 9.92428 8.70609 10.2173 8.26147C10.5103 7.81685 10.6667 7.29411 10.6667 6.75937C10.6667 6.0423 10.3858 5.3546 9.88566 4.84756C9.38556 4.34052 8.70729 4.05566 8.00004 4.05566ZM8.00004 8.11122C7.73633 8.11122 7.47855 8.03194 7.25928 7.88339C7.04002 7.73485 6.86912 7.52372 6.7682 7.2767C6.66729 7.02968 6.64088 6.75787 6.69233 6.49564C6.74378 6.2334 6.87076 5.99253 7.05723 5.80347C7.2437 5.61441 7.48128 5.48565 7.73992 5.43349C7.99856 5.38133 8.26665 5.4081 8.51029 5.51042C8.75392 5.61274 8.96216 5.78601 9.10867 6.00832C9.25518 6.23063 9.33337 6.492 9.33337 6.75937C9.33337 7.1179 9.1929 7.46175 8.94285 7.71527C8.6928 7.96879 8.35366 8.11122 8.00004 8.11122Z" fill="#828282"/>
    <path d="M7.99996 16.2221C7.43859 16.225 6.8847 16.0915 6.38467 15.8328C5.88464 15.5741 5.45303 15.1977 5.12596 14.7351C2.5853 11.1817 1.29663 8.51048 1.29663 6.79498C1.29663 4.99245 2.00287 3.26375 3.25999 1.98917C4.51711 0.714587 6.22213 -0.00146484 7.99996 -0.00146484C9.7778 -0.00146484 11.4828 0.714587 12.7399 1.98917C13.9971 3.26375 14.7033 4.99245 14.7033 6.79498C14.7033 8.51048 13.4146 11.1817 10.874 14.7351C10.5469 15.1977 10.1153 15.5741 9.61525 15.8328C9.11522 16.0915 8.56133 16.225 7.99996 16.2221ZM7.99996 1.47408C6.60824 1.47569 5.27398 2.03694 4.28988 3.03471C3.30578 4.03248 2.75222 5.38527 2.75063 6.79633C2.75063 8.15494 4.01263 10.6674 6.3033 13.8706C6.49776 14.1421 6.75288 14.3632 7.04777 14.5156C7.34267 14.668 7.66896 14.7475 7.99996 14.7475C8.33096 14.7475 8.65726 14.668 8.95215 14.5156C9.24705 14.3632 9.50217 14.1421 9.69663 13.8706C11.9873 10.6674 13.2493 8.15494 13.2493 6.79633C13.2477 5.38527 12.6941 4.03248 11.71 3.03471C10.726 2.03694 9.39169 1.47569 7.99996 1.47408Z" fill="#828282"/>
  </g>
  <defs>
    <clipPath id="clip0_154_1511">
      <rect width="16" height="16.2222" fill="white"/>
    </clipPath>
  </defs>
</svg>