<svg xmlns="http://www.w3.org/2000/svg" width="24" height="15" viewBox="0 0 24 15" fill="none">
<path d="M15.2375 1.66602H8.74268V13.3345H15.2375V1.66602Z" fill="#FF5A00"/>
<path d="M9.17533 7.50006C9.17533 5.12936 10.2898 3.02528 12 1.66579C10.7414 0.676203 9.15372 0.078125 7.42193 0.078125C3.31945 0.078125 0 3.39758 0 7.50006C0 11.6025 3.31945 14.922 7.42193 14.922C9.15372 14.922 10.7414 14.3239 12 13.3343C10.2874 11.9941 9.17533 9.87075 9.17533 7.50006Z" fill="#EB001B"/>
<path d="M24 7.50006C24 11.6025 20.6805 14.922 16.5781 14.922C14.8463 14.922 13.2586 14.3239 12 13.3343C13.7318 11.9724 14.8247 9.87075 14.8247 7.50006C14.8247 5.12936 13.7102 3.02528 12 1.66579C13.2562 0.676203 14.8439 0.078125 16.5757 0.078125C20.6805 0.078125 24 3.4192 24 7.50006Z" fill="#F79E1B"/>
</svg>