<svg width="24" height="24" viewBox="0 0 24 24" fill="none" xmlns="http://www.w3.org/2000/svg">
<g clip-path="url(#clip0_150_1889)">
<path d="M11.9961 0C12.824 0 13.4952 0.671195 13.4952 1.49914V6.49631C13.4952 7.32426 12.824 7.99546 11.9961 7.99546C11.1681 7.99546 10.4969 7.32426 10.4969 6.49631V1.49914C10.4969 0.671195 11.1681 0 11.9961 0Z" fill="#282828"/>
<path d="M15.494 4.93705C15.4867 5.4403 15.7404 5.9115 16.1646 6.18233C19.9327 8.48459 21.121 13.4056 18.8187 17.1737C16.5164 20.9417 11.5954 22.13 7.82733 19.8278C4.05923 17.5255 2.87097 12.6045 5.17328 8.83638C5.83113 7.75971 6.73446 6.85399 7.80939 6.19329C8.24091 5.92246 8.50148 5.44747 8.49801 4.93799C8.50031 4.11004 7.83099 3.43702 7.00304 3.43472C6.71867 3.43393 6.43992 3.51404 6.19935 3.66573C1.04159 6.86941 -0.542489 13.6476 2.66114 18.8053C5.86476 23.963 12.643 25.5471 17.8007 22.3435C22.9584 19.1399 24.5425 12.3617 21.3388 7.20395C20.4471 5.76828 19.2363 4.55754 17.8007 3.66578C17.0981 3.22255 16.1692 3.4328 15.726 4.13539C15.5746 4.37534 15.4942 4.65329 15.494 4.93705Z" fill="#282828"/>
</g>
<defs>
<clipPath id="clip0_150_1889">
<rect width="24" height="24" fill="white"/>
</clipPath>
</defs>
</svg>
