<svg width="32" height="33" viewBox="0 0 32 33" fill="none" xmlns="http://www.w3.org/2000/svg">
<g clip-path="url(#clip0_150_1895)">
<path d="M16 16.2222C17.5823 16.2222 19.129 15.7465 20.4446 14.8553C21.7602 13.964 22.7855 12.6972 23.391 11.2151C23.9965 9.733 24.155 8.10212 23.8463 6.52872C23.5376 4.95532 22.7757 3.51005 21.6569 2.37569C20.538 1.24133 19.1126 0.468826 17.5607 0.155856C16.0089 -0.157113 14.4003 0.00351443 12.9385 0.617426C11.4767 1.23134 10.2273 2.27096 9.34824 3.60482C8.46919 4.93869 8 6.50689 8 8.11112C8.00212 10.2617 8.84565 12.3235 10.3455 13.8442C11.8453 15.3648 13.8789 16.2201 16 16.2222ZM16 2.70371C17.0548 2.70371 18.086 3.02085 18.963 3.61502C19.8401 4.2092 20.5237 5.05372 20.9274 6.04179C21.331 7.02987 21.4366 8.11712 21.2309 9.16605C21.0251 10.215 20.5171 11.1785 19.7712 11.9347C19.0254 12.691 18.075 13.206 17.0405 13.4146C16.0059 13.6233 14.9336 13.5162 13.959 13.1069C12.9845 12.6976 12.1515 12.0046 11.5655 11.1153C10.9795 10.2261 10.6667 9.1806 10.6667 8.11112C10.6667 6.67698 11.2286 5.30159 12.2288 4.2875C13.229 3.27342 14.5855 2.70371 16 2.70371Z" fill="#282828"/>
<path d="M16 18.9258C12.8185 18.9294 9.76829 20.2123 7.51862 22.4933C5.26894 24.7742 4.00353 27.8667 4 31.0925C4 31.451 4.14048 31.7948 4.39052 32.0484C4.64057 32.3019 4.97971 32.4443 5.33333 32.4443C5.68696 32.4443 6.02609 32.3019 6.27614 32.0484C6.52619 31.7948 6.66667 31.451 6.66667 31.0925C6.66667 28.5827 7.65 26.1758 9.40034 24.4011C11.1507 22.6265 13.5246 21.6295 16 21.6295C18.4754 21.6295 20.8493 22.6265 22.5997 24.4011C24.35 26.1758 25.3333 28.5827 25.3333 31.0925C25.3333 31.451 25.4738 31.7948 25.7239 32.0484C25.9739 32.3019 26.313 32.4443 26.6667 32.4443C27.0203 32.4443 27.3594 32.3019 27.6095 32.0484C27.8595 31.7948 28 31.451 28 31.0925C27.9965 27.8667 26.7311 24.7742 24.4814 22.4933C22.2317 20.2123 19.1815 18.9294 16 18.9258Z" fill="#282828"/>
</g>
<defs>
<clipPath id="clip0_150_1895">
<rect width="32" height="32.4445" fill="white"/>
</clipPath>
</defs>
</svg>
