<svg width="30" height="30" viewBox="0 0 30 30" fill="none" xmlns="http://www.w3.org/2000/svg">
<path d="M10.2624 6.61249C10.1453 6.72869 10.0523 6.86694 9.98883 7.01926C9.92537 7.17159 9.8927 7.33497 9.8927 7.49999C9.8927 7.665 9.92537 7.82838 9.98883 7.98071C10.0523 8.13303 10.1453 8.27128 10.2624 8.38748L15.9874 14.1125C16.1046 14.2287 16.1976 14.3669 16.2611 14.5193C16.3245 14.6716 16.3572 14.835 16.3572 15C16.3572 15.165 16.3245 15.3284 16.2611 15.4807C16.1976 15.633 16.1046 15.7713 15.9874 15.8875L10.2624 21.6125C10.1453 21.7287 10.0523 21.8669 9.98883 22.0193C9.92537 22.1716 9.8927 22.335 9.8927 22.5C9.8927 22.665 9.92537 22.8284 9.98883 22.9807C10.0523 23.133 10.1453 23.2713 10.2624 23.3875C10.4967 23.6203 10.8135 23.751 11.1437 23.751C11.4739 23.751 11.7907 23.6203 12.0249 23.3875L17.7624 17.65C18.4647 16.9469 18.8591 15.9937 18.8591 15C18.8591 14.0062 18.4647 13.0531 17.7624 12.35L12.0249 6.61249C11.7907 6.37967 11.4739 6.24899 11.1437 6.24899C10.8135 6.24899 10.4967 6.37967 10.2624 6.61249Z" fill="#282828"/>
</svg>
