<svg width="122" height="121" viewBox="0 0 122 121" fill="none" xmlns="http://www.w3.org/2000/svg">
<path d="M79.8503 50.815C79.0742 50.039 78.5457 49.0502 78.3316 47.9737C78.1174 46.8973 78.2273 45.7815 78.6473 44.7675C79.0674 43.7536 79.7786 42.8869 80.6912 42.2771C81.6037 41.6674 82.6766 41.3419 83.7742 41.3419C84.8717 41.3419 85.9446 41.6674 86.8572 42.2771C87.7697 42.8869 88.481 43.7536 88.901 44.7675C89.321 45.7815 89.4309 46.8973 89.2168 47.9737C89.0027 49.0502 88.4741 50.039 87.6981 50.815C87.1945 51.3507 86.5865 51.7776 85.9117 52.0694C85.2368 52.3612 84.5094 52.5118 83.7742 52.5118C83.0389 52.5118 82.3115 52.3612 81.6367 52.0694C80.9618 51.7776 80.3539 51.3507 79.8503 50.815ZM85.9185 44.7468C85.4944 44.3227 84.9541 44.0339 84.3658 43.9168C83.7775 43.7998 83.1678 43.8599 82.6137 44.0894C82.0595 44.3189 81.5859 44.7076 81.2527 45.2063C80.9195 45.705 80.7416 46.2914 80.7416 46.8911C80.7416 47.4909 80.9195 48.0772 81.2527 48.576C81.5859 49.0747 82.0595 49.4634 82.6137 49.6929C83.1678 49.9224 83.7775 49.9825 84.3658 49.8655C84.9541 49.7484 85.4944 49.4596 85.9185 49.0355C86.2196 48.7653 86.4604 48.4346 86.6252 48.0652C86.79 47.6957 86.8752 47.2957 86.8752 46.8911C86.8752 46.4866 86.79 46.0866 86.6252 45.7171C86.4604 45.3476 86.2196 45.017 85.9185 44.7468Z" fill="white"/>
<path d="M13.6601 77.5348L13.669 67.6494L39.9618 41.3566C40.1978 41.1206 40.5178 40.988 40.8516 40.988C41.1853 40.988 41.5054 41.1206 41.7413 41.3566C41.9773 41.5926 42.1099 41.9126 42.1099 42.2463C42.1099 42.5801 41.9773 42.9001 41.7413 43.1361L16.1781 68.6993L16.1781 75.0167L22.5044 75.0256L24.8089 72.7211L24.8089 65.9054L30.8772 65.9054L30.8861 59.8283L36.9544 59.8283L36.9633 53.7511L43.7789 53.7155L48.0498 49.4446C48.2858 49.2086 48.6059 49.0761 48.9396 49.0761C49.2733 49.0761 49.5934 49.2086 49.8294 49.4446C50.0654 49.6806 50.1979 50.0007 50.1979 50.3344C50.1979 50.6681 50.0654 50.9882 49.8294 51.2242L44.8022 56.2514L39.4635 56.2514L39.4991 62.373L33.4308 62.373L33.422 68.4502L27.3537 68.4502L27.3537 73.7888L23.5811 77.5615L13.6601 77.5348Z" fill="white"/>
<path d="M87.7961 43.8302L86.0165 42.0507C88.3293 39.7332 89.6289 36.5934 89.6306 33.3194C89.6322 30.0453 88.3358 26.9042 86.0254 24.5844C83.6865 22.2864 80.5429 20.9922 77.2641 20.9773C73.9852 20.9623 70.83 22.2278 68.4702 24.5043L66.6906 22.7248C69.5226 19.9764 73.3179 18.4459 77.2641 18.4609C81.2104 18.4758 84.994 20.0351 87.805 22.8048C90.5873 25.5966 92.1489 29.3779 92.1472 33.3194C92.1455 37.2609 90.5808 41.0408 87.7961 43.8302Z" fill="white"/>
<path d="M64.2527 29.3448L61.9215 27.0136C61.2029 26.295 60.7992 25.3204 60.7992 24.3042C60.7992 23.288 61.2029 22.3134 61.9215 21.5949C62.6401 20.8763 63.6146 20.4726 64.6309 20.4726C65.6471 20.4726 66.6217 20.8763 67.3402 21.5949L69.6714 23.9261C70.0258 24.2803 70.3061 24.7016 70.4959 25.1653C70.6858 25.629 70.7815 26.1259 70.7773 26.627C70.7732 27.128 70.6693 27.6232 70.4718 28.0837C70.2743 28.5443 69.9871 28.9608 69.6269 29.3092C68.9022 29.9946 67.9443 30.3794 66.9468 30.3861C65.9493 30.3927 64.9865 30.0205 64.2527 29.3448ZM65.5607 23.3744C65.3141 23.1278 64.9796 22.9893 64.6309 22.9893C64.2821 22.9893 63.9476 23.1278 63.701 23.3744C63.4544 23.621 63.3159 23.9555 63.3159 24.3042C63.3159 24.653 63.4544 24.9874 63.701 25.234L66.0323 27.5652C66.2836 27.7699 66.5979 27.8816 66.922 27.8816C67.2462 27.8816 67.5604 27.7699 67.8118 27.5652C67.9384 27.4507 68.0403 27.3117 68.1115 27.1565C68.1826 27.0014 68.2214 26.8334 68.2256 26.6628C68.2297 26.4921 68.1992 26.3225 68.1357 26.164C68.0722 26.0056 67.9771 25.8617 67.8563 25.7412L65.5607 23.3744Z" fill="white"/>
<path d="M45.4073 48.991L42.2753 45.8589C35.1838 38.5005 34.7389 30.2612 41.1186 23.8815C46.4572 18.5429 58.9141 6.08606 68.2033 15.3753L75.5973 22.7693C84.9933 32.1653 72.5365 44.6222 67.1979 49.9608C60.7203 56.5273 52.5611 56.1447 45.4073 48.991ZM66.5038 17.2171C59.8839 10.5972 50.8883 17.8133 42.9782 25.7234C35.3529 33.3487 41.2254 41.1254 44.1349 44.1417L47.1957 47.2025C50.0964 50.1032 57.7307 55.9579 65.4717 48.2169C73.2127 40.4758 80.5979 31.3111 73.8712 24.5845L66.5038 17.2171Z" fill="white"/>
<path d="M66.4234 84.1903C65.7571 83.5329 65.2295 82.7484 64.8719 81.8833C64.5143 81.0183 64.3338 80.0903 64.3413 79.1542L64.3947 49.8273C64.3957 49.4948 64.5282 49.1763 64.7633 48.9413C64.9983 48.7062 65.3169 48.5737 65.6493 48.5727C65.9817 48.5737 66.3003 48.7062 66.5353 48.9413C66.7704 49.1763 66.9029 49.4948 66.9039 49.8273L66.9039 79.1898C66.9131 80.3858 67.3922 81.5301 68.2379 82.3758C69.0836 83.2215 70.228 83.7007 71.4239 83.7099L88.6322 83.7099C89.2267 83.7175 89.8167 83.606 90.3675 83.382C90.9182 83.158 91.4186 82.826 91.839 82.4055C92.2594 81.9851 92.5914 81.4848 92.8154 80.934C93.0395 80.3833 93.1509 79.7932 93.1433 79.1987L93.0188 43.4832C93.0259 42.8876 92.9138 42.2967 92.6892 41.7451C92.4645 41.1935 92.1318 40.6923 91.7107 40.2712C91.2895 39.85 90.7884 39.5174 90.2368 39.2927C89.6852 39.0681 89.0943 38.956 88.4987 38.9631L75.7393 38.9631C75.4019 38.9584 75.0801 38.8198 74.8449 38.5779C74.6096 38.3359 74.48 38.0104 74.4848 37.673C74.4895 37.3355 74.6281 37.0138 74.87 36.7785C75.112 36.5432 75.4375 36.4137 75.7749 36.4184L88.561 36.4451C89.4872 36.4339 90.4062 36.6081 91.2641 36.9574C92.122 37.3067 92.9013 37.824 93.5563 38.479C94.2112 39.134 94.7286 39.9133 95.0779 40.7712C95.4272 41.629 95.6014 42.5481 95.5902 43.4743L95.6525 79.1809C95.6602 80.1062 95.4837 81.0237 95.1332 81.88C94.7827 82.7363 94.2652 83.5143 93.6109 84.1686C92.9567 84.8228 92.1787 85.3403 91.3224 85.6908C90.4661 86.0413 89.5485 86.2179 88.6233 86.2101H71.3973C70.476 86.2175 69.5625 86.0429 68.7089 85.6963C67.8554 85.3497 67.0787 84.8379 66.4234 84.1903Z" fill="white"/>
</svg>
